<svg xmlns="http://www.w3.org/2000/svg" width="16.313" height="16.313" viewBox="0 0 16.313 16.313">
  <path id="ig-icon" d="M5.735,1A4.744,4.744,0,0,0,1,5.735v6.848a4.743,4.743,0,0,0,4.735,4.73h6.848a4.743,4.743,0,0,0,4.73-4.735V5.735A4.744,4.744,0,0,0,12.578,1Zm0,1.255h6.843a3.468,3.468,0,0,1,3.48,3.48v6.843a3.467,3.467,0,0,1-3.475,3.48H5.735a3.467,3.467,0,0,1-3.48-3.475V5.735A3.468,3.468,0,0,1,5.735,2.255ZM14.175,3.51a.627.627,0,1,0,.627.627A.626.626,0,0,0,14.175,3.51ZM9.156,4.764a4.392,4.392,0,1,0,4.392,4.392A4.4,4.4,0,0,0,9.156,4.764Zm0,1.255A3.137,3.137,0,1,1,6.019,9.156,3.127,3.127,0,0,1,9.156,6.019Z" transform="translate(-1 -1)" fill="#fff"/>
</svg>
