<svg xmlns="http://www.w3.org/2000/svg" width="17.532" height="13.775" viewBox="0 0 17.532 13.775">
  <path id="tw-icon" d="M18.532,3.624a6.647,6.647,0,0,1-2.045.563,3.769,3.769,0,0,0,1.6-1.9,6.82,6.82,0,0,1-2.26.846A3.906,3.906,0,0,0,13.127,2,3.531,3.531,0,0,0,9.546,5.463a2.582,2.582,0,0,0,.073.778A10.4,10.4,0,0,1,1.519,2,2.95,2.95,0,0,0,1,3.766a3.524,3.524,0,0,0,1.609,2.9A5.311,5.311,0,0,1,1,6.241V6.31A3.456,3.456,0,0,0,3.857,9.7a3.953,3.953,0,0,1-.954.142,2.154,2.154,0,0,1-.655-.068,5.064,5.064,0,0,0,4.085,3.038,6.989,6.989,0,0,1-4.706,1.712H1a10.267,10.267,0,0,0,5.479,1.252A9.961,9.961,0,0,0,16.707,5.884V5.463a7.406,7.406,0,0,0,1.825-1.839" transform="translate(-1 -2)" fill="#fff"/>
</svg>
