<svg xmlns="http://www.w3.org/2000/svg" width="17.175" height="17.175" viewBox="0 0 17.175 17.175">
  <defs>
    <style>
      .cls-1 {
        fill: #fff;
      }
    </style>
  </defs>
  <path id="fb-icon" class="cls-1" d="M4.3,1A3.313,3.313,0,0,0,1,4.3V14.872a3.313,3.313,0,0,0,3.3,3.3H14.872a3.313,3.313,0,0,0,3.3-3.3V4.3a3.313,3.313,0,0,0-3.3-3.3Zm0,1.321H14.872A1.971,1.971,0,0,1,16.854,4.3V14.872a1.971,1.971,0,0,1-1.982,1.982H12.764V11.525h1.845L14.885,9.4H12.764V8.044c0-.616.171-1.035,1.06-1.035H14.96v-1.9a15.29,15.29,0,0,0-1.654-.083,2.568,2.568,0,0,0-2.753,2.807V9.4L8.927,9.394V11.52l1.626.005v5.328H4.3a1.971,1.971,0,0,1-1.982-1.982V4.3A1.971,1.971,0,0,1,4.3,2.321Z" transform="translate(-1 -1)"/>
</svg>
